<svg data-v-0dd9719b="" version="1.0" xmlns="http://www.w3.org/2000/svg" xmlns:xlink="http://www.w3.org/1999/xlink" width="100%" height="100%" viewBox="0 0 340.000000 250.000000" preserveAspectRatio="xMidYMid meet" color-interpolation-filters="sRGB" style="margin: auto;"> <rect data-v-0dd9719b="" x="0" y="0" width="100%" height="100%" fill="#fff" fill-opacity="1" class="background"></rect> <rect data-v-0dd9719b="" x="0" y="0" width="100%" height="100%" fill="url(#watermark)" fill-opacity="1" class="watermarklayer"></rect> <g data-v-0dd9719b="" fill="#064093" class="icon-text-wrapper icon-svg-group iconsvg" transform="translate(50.280006408691406,92.45780181884766)"><g class="iconsvg-imagesvg" transform="translate(0,0)"><g><rect fill="#064093" fill-opacity="0" stroke-width="2" x="0" y="0" width="60" height="65.08439276261552" class="image-rect"></rect> <svg x="0" y="0" width="60" height="65.08439276261552" filtersec="colorsb2843464577" class="image-svg-svg primary" style="overflow: visible;"><svg xmlns="http://www.w3.org/2000/svg" viewBox="19.691999435424805 0 464.739013671875 504.12298583984375"><linearGradient id="a5d25b983-2e16-424b-a8c9-6820ebf720eb" gradientUnits="userSpaceOnUse" x1="-28.742" y1="631.582" x2="-28.742" y2="579.305" gradientTransform="matrix(7.8769 0 0 -7.8769 364.054 4969.67)"><stop offset="0" stop-color="#29d3da"></stop><stop offset=".519" stop-color="#07f"></stop><stop offset=".999" stop-color="#064093"></stop><stop offset="1" stop-color="#084698"></stop></linearGradient><path fill="url(#a5d25b983-2e16-424b-a8c9-6820ebf720eb)" d="M224.492 0L50.814 100.281l173.678 100.265z"></path><linearGradient id="b1c6ff8f7-d473-4d95-8a35-a8429d0eb97c" gradientUnits="userSpaceOnUse" x1="-37.58" y1="577.78" x2="-33.071" y2="603.165" gradientTransform="matrix(7.8769 0 0 -7.8769 364.054 4969.67)"><stop offset=".012" stop-color="#e0b386"></stop><stop offset=".519" stop-color="#da498c"></stop><stop offset="1" stop-color="#961484"></stop></linearGradient><path fill="url(#b1c6ff8f7-d473-4d95-8a35-a8429d0eb97c)" d="M193.331 252.062L19.692 151.812v200.507z"></path><linearGradient id="ca345323b-6396-4917-9238-fab9cce192c3" gradientUnits="userSpaceOnUse" x1=".305" y1="631.582" x2=".305" y2="579.305" gradientTransform="matrix(7.8769 0 0 -7.8769 364.054 4969.67)"><stop offset="0" stop-color="#29d3da"></stop><stop offset=".519" stop-color="#07f"></stop><stop offset=".999" stop-color="#064093"></stop><stop offset="1" stop-color="#084698"></stop></linearGradient><path fill="url(#ca345323b-6396-4917-9238-fab9cce192c3)" d="M279.631 0v200.523l173.654-100.258z"></path><linearGradient id="d7c73d5de-47f3-43ad-a689-78df52bd7adf" gradientUnits="userSpaceOnUse" x1=".307" y1="552.585" x2=".307" y2="575.035" gradientTransform="matrix(7.8769 0 0 -7.8769 364.054 4969.67)"><stop offset="0" stop-color="#29d3da"></stop><stop offset=".519" stop-color="#07f"></stop><stop offset=".999" stop-color="#064093"></stop><stop offset="1" stop-color="#084698"></stop></linearGradient><path fill="url(#d7c73d5de-47f3-43ad-a689-78df52bd7adf)" d="M279.631 303.561v200.562l173.678-100.281z"></path><linearGradient id="efbdb7f5b-1509-4c75-a811-87f0413151f7" gradientUnits="userSpaceOnUse" x1="-28.744" y1="552.585" x2="-28.744" y2="575.035" gradientTransform="matrix(7.8769 0 0 -7.8769 364.054 4969.67)"><stop offset="0" stop-color="#29d3da"></stop><stop offset=".519" stop-color="#07f"></stop><stop offset=".999" stop-color="#064093"></stop><stop offset="1" stop-color="#084698"></stop></linearGradient><path fill="url(#efbdb7f5b-1509-4c75-a811-87f0413151f7)" d="M224.492 303.561L50.79 403.826l173.702 100.297z"></path><linearGradient id="fd92afddb-e49e-41a3-906d-40f3e80b03e1" gradientUnits="userSpaceOnUse" x1="2.236" y1="581.185" x2="6.75" y2="606.571" gradientTransform="matrix(7.8769 0 0 -7.8769 364.054 4969.67)"><stop offset=".012" stop-color="#e0b386"></stop><stop offset=".519" stop-color="#da498c"></stop><stop offset="1" stop-color="#961484"></stop></linearGradient><path fill="url(#fd92afddb-e49e-41a3-906d-40f3e80b03e1)" d="M310.745 252.054l173.686 100.273V151.78z"></path><linearGradient id="g764f2fc0-8f1b-4820-a898-410c46e635b7" gradientUnits="userSpaceOnUse" x1="-35.905" y1="580.015" x2="-32.957" y2="596.611" gradientTransform="matrix(7.8769 0 0 -7.8769 364.054 4969.67)"><stop offset=".012" stop-color="#e0b386"></stop><stop offset=".519" stop-color="#da498c"></stop><stop offset="1" stop-color="#961484"></stop></linearGradient><path fill="url(#g764f2fc0-8f1b-4820-a898-410c46e635b7)" d="M193.331 252.062L19.692 265.224v87.095z"></path><linearGradient id="h1fb5e872-b781-4a1d-bd5a-89a2a3f01b6b" gradientUnits="userSpaceOnUse" x1="2.951" y1="585.195" x2="4.91" y2="596.225" gradientTransform="matrix(7.8769 0 0 -7.8769 364.054 4969.67)"><stop offset=".012" stop-color="#e0b386"></stop><stop offset=".519" stop-color="#da498c"></stop><stop offset="1" stop-color="#961484"></stop></linearGradient><path fill="url(#h1fb5e872-b781-4a1d-bd5a-89a2a3f01b6b)" d="M310.745 252.054l173.686 100.273v-87.142z"></path></svg></svg> <!----></g></g> <g transform="translate(67,4.760948181152344)"><g data-gra="path-name" fill-rule="" class="tp-name iconsvg-namesvg" transform="translate(0,0)"><g transform="scale(1)"><g><path d="M16.7-30.23L16.7-35.16 24.26-35.16 24.26-30.23 40.61-30.23 40.61-26.54 24.26-26.54 24.26-20.21 38.5-20.21 38.5-16.52 2.46-16.52 2.46-20.21 16.7-20.21 16.7-26.54 0.35-26.54 0.35-30.23 16.7-30.23ZM3.69 5.45L3.69-13.36 11.25-13.36 11.25 1.93 29.71 1.93 29.71-7.91Q29.71-9.14 28.65-9.67L28.65-9.67Q28.3-9.67 27.95-9.67L27.95-9.67 12.48-9.67 12.48-13.36 33.75-13.36Q35.86-13.36 36.91-11.25L36.91-11.25Q37.27-10.55 37.27-9.67L37.27-9.67 37.27 5.45 3.69 5.45ZM50.45-30.41L50.45-35.16 56.6-35.16 56.6-30.41 63.11-30.41 63.11-26.89 56.6-26.89 56.6 5.45 50.45 5.45 50.45-26.89 43.95-26.89 43.95-30.41 50.45-30.41ZM71.19-30.41L71.19-35.16 77.87-35.16 77.87-30.41 84.9-30.41 84.9-26.89 77.87-26.89 77.87 5.45 71.19 5.45 71.19-26.89 64.16-26.89 64.16-30.41 71.19-30.41ZM45.7-23.38L45.7-23.38 49.75-23.38Q49.75-22.15 47.99 2.64L47.99 2.64 47.81 3.87 43.95 3.87Q44.12 2.46 45.7-23.38ZM57.48-21.97L57.48-23.38 61.35-23.38 63.11 2.64 63.11 3.87 59.24 3.87 59.24 3.87 57.48-21.97ZM65.92-23.38L65.92-23.38 70.31-23.38Q70.31-22.5 68.55 3.87L68.55 3.87 64.16 3.87Q65.92-22.15 65.92-23.38ZM78.75-23.38L78.75-23.38 83.14-23.38Q84.9 2.64 84.9 3.87L84.9 3.87 80.51 3.87Q78.75-22.85 78.75-23.03L78.75-23.03Q78.75-23.03 78.75-23.38ZM93.16-20.92L90-34.45 97.38-34.45Q97.38-34.45 97.73-32.87L97.73-32.87 100.9-19.34 100.9-19.34 93.52-19.34Q93.52-19.34 93.16-20.92L93.16-20.92ZM103.01-34.45L103.01-34.45 110.21-34.45 113.91-19.34 106.52-19.34Q106.35-19.34 105.82-21.8L105.82-21.8Q103.18-33.05 103.01-34.45ZM119.36-34.45L126.74-34.45 123.22-19.34 115.84-19.34 115.84-19.34 119.36-34.45ZM87.89-12.3L87.89-16 128.85-16 128.85-12.3 87.89-12.3ZM96.33-9.14L103.71-9.14 103.71-9.14Q97.56 5.27 97.38 5.45L97.38 5.45 90 5.45Q96.15-8.79 96.33-9.14L96.33-9.14ZM113.03-9.14L113.03-9.14 120.23-9.14Q120.41-9.14 121.29-7.21L121.29-7.21Q121.29-7.03 126.74 5.45L126.74 5.45 119.36 5.45Q119.18 5.27 113.03-9.14L113.03-9.14ZM137.11-20.92L133.95-34.45 141.33-34.45Q141.33-34.45 141.68-32.87L141.68-32.87 144.84-19.34 144.84-19.34 137.46-19.34Q137.46-19.34 137.11-20.92L137.11-20.92ZM146.95-34.45L146.95-34.45 154.16-34.45 157.85-19.34 150.47-19.34Q150.29-19.34 149.77-21.8L149.77-21.8Q147.13-33.05 146.95-34.45ZM163.3-34.45L170.68-34.45 167.17-19.34 159.79-19.34 159.79-19.34 163.3-34.45ZM131.84-12.3L131.84-16 172.79-16 172.79-12.3 131.84-12.3ZM140.27-9.14L147.66-9.14 147.66-9.14Q141.5 5.27 141.33 5.45L141.33 5.45 133.95 5.45Q140.1-8.79 140.27-9.14L140.27-9.14ZM156.97-9.14L156.97-9.14 164.18-9.14Q164.36-9.14 165.23-7.21L165.23-7.21Q165.23-7.03 170.68 5.45L170.68 5.45 163.3 5.45Q163.13 5.27 156.97-9.14L156.97-9.14Z" transform="translate(-0.3500000238418579, 35.15999984741211)"></path></g> <!----> <!----> <!----> <!----> <!----> <!----> <!----></g></g> <g data-gra="path-slogan" fill-rule="" class="tp-slogan iconsvg-slogansvg" fill="#064093" transform="translate(41.874996185302734,46.61000061035156)"><!----> <!----> <g transform="scale(1, 1)"><g transform="scale(1)"><path d="M0.19-1.92L0.19-2.77L1.27-2.77L1.27-2.16Q1.27-0.75 2.58-0.75L2.58-0.75Q3.94-0.75 3.94-2.25L3.94-2.25L3.94-8.58L5.11-8.58L5.11-2.30Q5.06 0.09 2.63 0.14L2.63 0.14Q0.33 0.09 0.19-1.92L0.19-1.92ZM7.08-8.58L8.25-8.58L8.25 0L7.08 0L7.08-8.58ZM10.22-8.58L11.39-8.58L11.39-1.03L15.75-1.03L15.75 0L10.22 0L10.22-8.58ZM17.06-8.58L18.23-8.58L18.23 0L17.06 0L17.06-8.58ZM21.61-8.58L25.92-1.64L25.92-8.58L27.05-8.58L27.05 0L25.73 0L21.38-6.94L21.33-6.94L21.33 0L20.20 0L20.20-8.58L21.61-8.58ZM38.91-8.58L36-4.41L39.05 0L37.59 0L35.25-3.52L32.91 0L31.50 0L34.59-4.41L31.69-8.58L33.14-8.58L35.30-5.30L37.50-8.58L38.91-8.58ZM40.31-8.58L41.48-8.58L41.48 0L40.31 0L40.31-8.58ZM44.86-8.58L49.17-1.64L49.17-8.58L50.30-8.58L50.30 0L48.98 0L44.63-6.94L44.58-6.94L44.58 0L43.45 0L43.45-8.58L44.86-8.58ZM58.50-3.61L55.88-3.61L55.88-4.59L59.63-4.59L59.63 0L58.88 0L58.59-1.08Q57.61 0.09 55.78 0.14L55.78 0.14Q54.05 0.14 53.11-0.75L53.11-0.75Q51.70-2.06 51.75-4.36L51.75-4.36Q52.08-8.63 55.83-8.81L55.83-8.81Q59.02-8.63 59.48-6L59.48-6L58.36-6Q57.89-7.78 55.78-7.83L55.78-7.83Q53.11-7.64 52.97-4.31L52.97-4.31Q52.97-0.75 55.83-0.75L55.83-0.75Q56.86-0.75 57.61-1.31L57.61-1.31Q58.55-2.06 58.50-3.61L58.50-3.61ZM68.16-8.58L65.25-4.41L68.30 0L66.84 0L64.50-3.52L62.16 0L60.75 0L63.84-4.41L60.94-8.58L62.39-8.58L64.55-5.30L66.75-8.58L68.16-8.58ZM69.56-8.58L70.73-8.58L70.73 0L69.56 0L69.56-8.58ZM74.11-8.58L78.42-1.64L78.42-8.58L79.55-8.58L79.55 0L78.23 0L73.88-6.94L73.83-6.94L73.83 0L72.70 0L72.70-8.58L74.11-8.58ZM87.75-3.61L85.13-3.61L85.13-4.59L88.88-4.59L88.88 0L88.13 0L87.84-1.08Q86.86 0.09 85.03 0.14L85.03 0.14Q83.30 0.14 82.36-0.75L82.36-0.75Q80.95-2.06 81-4.36L81-4.36Q81.33-8.63 85.08-8.81L85.08-8.81Q88.27-8.63 88.73-6L88.73-6L87.61-6Q87.14-7.78 85.03-7.83L85.03-7.83Q82.36-7.64 82.22-4.31L82.22-4.31Q82.22-0.75 85.08-0.75L85.08-0.75Q86.11-0.75 86.86-1.31L86.86-1.31Q87.80-2.06 87.75-3.61L87.75-3.61Z" transform="translate(-0.1875, 8.8125)"></path></g></g></g></g></g><defs v-gra="od"></defs></svg>